<?xml version="1.0" encoding="utf-8"?>
<svg xmlns="http://www.w3.org/2000/svg" width="1024" height="1024" viewBox="0 0 1024 1024" fill="none">
<path fill-rule="evenodd" clip-rule="evenodd" d="M1024 188.093C1024 125.875 982.095 46.489 888.701 9.67106C767.734 -38.014 720.617 106.142 512 106.142C303.383 106.142 256.266 -38.014 135.299 9.67106C41.9046 46.489 0 125.875 0 188.093C0 269.47 101.983 326.584 101.983 511.999C101.983 697.417 0 754.531 0 835.908C0 898.126 41.9046 977.514 135.299 1014.33C256.266 1062.01 303.383 917.859 512 917.859C720.617 917.859 767.734 1062.01 888.701 1014.33C982.095 977.514 1024 898.126 1024 835.908C1024 754.531 922.017 697.417 922.017 511.999C922.017 326.584 1024 269.47 1024 188.093Z" fill="#FF0000"/>
</svg>